<svg xmlns="http://www.w3.org/2000/svg" viewBox="0 15.100000381469727 229.0500030517578 38.5" data-asc="1.037" width="2290" height="385"><defs /><g transform="translate(0, 0)"><path d=" M   0       38.05                     L   0       30.65                     L   30.60   15.10                     L   30.60   23.60                     L   9.45    34.35                     L   30.60   45.10                     L   30.60   53.60                     L   0       38.05                     Z" fill="#505050" /><path d="                     M   38.10   51.85                     L   38.10   16.85                     L   90.05   16.85                     L   90.05   51.85                     L   38.10   51.85                     M   51.15   44.75                     L   77      44.75                     L   77      23.95                     L   51.15   23.95                     L   51.15   44.75                     Z" fill="#A000A0" /><path d="                     M   99.55   51.85                     L   99.55   40.35                     L   112.60  42.25                     L   112.60  44.75                     L   137.90  44.75                     L   137.90  40.35                     L   99.55   34.30                     L   99.55   16.85                     L   150.95  16.85                     L   150.95  29.00                     L   137.90  27.00                     L   137.90  23.95                     L   112.60  23.95                     L   112.60  28.70                     L   150.95  34.75                     L   150.95  51.85                     L   99.55   51.85                     Z" fill="#A000A0" /><path d="                     M   155.45  51.85                     L   182.45  16.85                     L   195.95  16.85                     L   168.95  51.85                     L   155.45  51.85                     Z" fill="#505050" /><path d="                     M   198.45  53.60                     L   198.45  45.10                     L   219.60  34.35                     L   198.45  23.60                     L   198.45  15.10                     L   229.05  30.65                     L   229.05  38.05                     L   198.45  53.60                     Z" fill="#505050" /></g></svg>